<svg width="20" height="20" viewBox="0 0 20 20" fill="none" xmlns="http://www.w3.org/2000/svg">
<path fill-rule="evenodd" clip-rule="evenodd" d="M5.83338 18.3334C4.45266 18.3334 3.33338 17.2141 3.33338 15.8334V10.8334H2.50004C1.75762 10.8334 1.38582 9.93574 1.91079 9.41077L9.41079 1.91076C9.73622 1.58533 10.2639 1.58533 10.5893 1.91076L18.0893 9.41077C18.6143 9.93574 18.2425 10.8334 17.5 10.8334H16.6667V15.8334C16.6667 17.2141 15.5474 18.3334 14.1667 18.3334H5.83338ZM10 3.67854L4.45914 9.21944C4.77513 9.33788 5.00004 9.64268 5.00004 10V15.8334C5.00004 16.2936 5.37314 16.6667 5.83338 16.6667L7.50004 16.6659L7.50005 13.3334C7.50005 12.4129 8.24624 11.6667 9.16671 11.6667H10.8334C11.7539 11.6667 12.5 12.4129 12.5 13.3334L12.5 16.6659L14.1667 16.6667C14.627 16.6667 15 16.2936 15 15.8334V10C15 9.64268 15.225 9.33788 15.541 9.21944L10 3.67854ZM10.8334 13.3334H9.16671L9.1667 16.6659H10.8334L10.8334 13.3334Z" fill="black"/>
</svg>
